<?xml version="1.0" encoding="UTF-8"?>
<svg id="Layer_1" data-name="Layer 1" xmlns="http://www.w3.org/2000/svg" viewBox="0 0 137 37.1">
  <defs>
    <style>
      .cls-1 {
        fill: #fff;
      }

      .cls-1, .cls-2 {
        stroke-width: 0px;
      }

      .cls-2 {
        fill: #231f20;
      }
    </style>
  </defs>
  <g>
    <path class="cls-2" d="M3.1,5.9c1.5-.3,4-.5,6.5-.5,3.5,0,5.8.5,7.5,1.7,1.4.9,2.3,2.3,2.3,4.1s-1.7,4.2-4.6,5h0c2.6.6,5.7,2.4,5.7,5.8s-.9,3.5-2.3,4.6c-1.9,1.5-5,2.1-9.5,2.1s-4.3-.1-5.5-.3V5.9ZM6.6,15.3h3.2c3.7,0,5.9-1.6,5.9-3.9s-2.4-3.8-6-3.8-2.6.1-3.1.2v7.4ZM6.6,26.3c.7.1,1.7.1,3,.1,3.7,0,7-1.1,7-4.5s-3.2-4.4-7.1-4.4h-2.9v8.8Z"/>
    <path class="cls-2" d="M25.1,5.9c1.8-.3,4.4-.5,6.8-.5,3.8,0,6.2.6,7.9,1.9,1.4,1,2.2,2.6,2.2,4.4,0,3-2.3,5-5.2,5.9h0c2.1.7,3.4,2.4,4,4.7.9,3.2,1.5,5.4,2.1,6.3h-3.7c-.4-.6-1.1-2.6-1.8-5.5-.8-3.2-2.3-4.4-5.5-4.5h-3.3v10h-3.5V5.9ZM28.7,16.3h3.6c3.8,0,6.2-1.7,6.2-4.4s-2.6-4.3-6.3-4.3c-1.7,0-2.9.1-3.5.3v8.4Z"/>
    <path class="cls-2" d="M61.2,17.8h-10.7v8.3h11.9v2.5h-15.4V5.6h14.8v2.5h-11.3v7.3h10.7v2.5Z"/>
    <path class="cls-2" d="M67,28.6V5.6h3.9l8.8,11.6c2,2.7,3.6,5.1,4.9,7.5h0c-.3-3.1-.4-5.9-.4-9.5V5.6h3.3v23h-3.6l-8.7-11.7c-1.9-2.6-3.7-5.2-5.1-7.7h-.1c.2,2.9.3,5.7.3,9.5v9.8h-3.3Z"/>
    <path class="cls-2" d="M93.8,5.9c2.2-.3,4.7-.5,7.5-.5,5.1,0,8.7,1,11.1,2.9,2.4,1.9,3.9,4.5,3.9,8.3s-1.4,6.8-3.9,8.9c-2.6,2.1-6.8,3.3-12.1,3.3s-4.6-.1-6.4-.3V5.9ZM97.3,26.2c.9.1,2.2.2,3.6.2,7.6,0,11.7-3.5,11.7-9.8,0-5.4-3.6-8.9-11.1-8.9s-3.2.1-4.1.3v18.2Z"/>
    <path class="cls-2" d="M125,8.1h-8.3v-2.5h20.3v2.5h-8.4v20.5h-3.6V8.1Z"/>
  </g>
  <polygon class="cls-1" points="2.8 30.9 0 28.9 2.4 26.8 5 28.7 2.8 30.9"/>
  <polygon class="cls-1" points="62.2 7.2 59.5 5.2 61.8 3.1 64.5 5 62.2 7.2"/>
  <polygon class="cls-1" points="88.1 7.3 85.4 5.3 87.7 3.2 90.3 5.1 88.1 7.3"/>
  <polygon class="cls-1" points="124.7 30.6 121.8 28.5 123.7 26.6 126.6 28.8 124.7 30.6"/>
  <polygon class="cls-1" points="94.2 30.8 91.3 28.7 93.2 26.8 96.1 29 94.2 30.8"/>
  <polygon class="cls-1" points="24 8.6 22.9 7.8 26.5 4.4 27.6 5.2 24 8.6"/>
</svg>